<svg id="Capa_1" xmlns="http://www.w3.org/2000/svg" width="18.3" height="18.3" viewBox="66.2 297.5 18.3 18.3"><style>.st0{fill:#FAFBED;}</style><path class="st0" d="M74.9 300.7c.4 0 .7-.2 1-.5.3-.3.4-.6.4-1s-.2-.7-.4-1c-.3-.3-.6-.4-1-.4s-.7.2-1 .5-.4.6-.4 1 .1.7.4 1c.3.2.6.4 1 .4zM79.7 305.4l-2.1-1.1-1.7-2.7c-.3-.4-.7-.6-1.2-.6-.3 0-.6.1-.9.4l-2.6 2.6c-.1.1-.1.2-.2.3l-.3 2.9v.1c0 .2.1.3.2.5.1.1.3.2.5.2s.3-.1.4-.2c.1-.1.2-.3.2-.4l.3-2.5.9-.9-.8 7-1.5 3.3c-.1.2-.1.3-.1.4 0 .3.1.5.3.7.2.2.4.3.7.2.4 0 .7-.2.8-.5l1.6-3.6v-.1c0-.1.1-.1.1-.2v-.2l.2-1.7 1.6 5.6c.2.5.5.7.9.6.3 0 .5-.1.7-.3.2-.2.3-.4.3-.7v-.1-.1l-2.3-7.8.3-2.5.6 1 .2.2 2.2 1.2c.2.1.3.1.3.1.2 0 .3-.1.5-.2.1-.1.2-.3.2-.5 0-.1-.1-.2-.3-.4z"/></svg>