<svg id="Layer_1" xmlns="http://www.w3.org/2000/svg" width="65.2" height="16.4" viewBox="0 0 65.2 16.4"><style>path{ fill:#FAFBED; }</style><g id="XMLID_34_"><path id="XMLID_43_" d="M10.8 1.9v7.3c0 2.4-1.1 3.5-3.6 3.5s-3.6-1-3.6-3.5V1.6H1.1c-.2 0-.3.1-.3.3v7.4c0 4.1 2.6 5.5 6.4 5.5 3.8 0 6.4-1.4 6.4-5.5V1.6h-2.4c-.3 0-.4.1-.4.3z"/><path id="XMLID_42_" d="M46.3 3.7c.2 0 .3-.1.4-.2l.7-1.8c0-.1 0-.2-.1-.2h-9.9c-.9 0-1.3.3-1.3.9v11.4c0 .5.3.8 1 .8h9.2c.2 0 .3-.1.4-.2l.7-1.8c0-.1 0-.2-.1-.2h-8.4v-2.3c0-.8.4-1.2 1.6-1.2h3.6c.2 0 .3-.1.4-.2l.7-1.7h-6.4V3.7h7.5z"/><path id="XMLID_38_" d="M28.9 7.7c1.1-.6 1.5-1.6 1.5-2.9 0-2.9-2.4-3.3-4.8-3.3H20c-.9 0-1.3.3-1.3.9v11.4c0 .5.3.8 1 .8h6.8c2.6 0 4.4-1 4.4-3.6.2-1.5-.5-2.9-2-3.3zm-7.4-4h4.3c1.4 0 1.8.5 1.8 1.7 0 1.1-.4 1.7-1.8 1.7h-4.3V3.7zm4.9 8.8h-4.8v-2.4c-.1-.8.4-1.1 1.6-1.1h3.2c1.5 0 2 .6 2 1.8-.1 1.2-.5 1.7-2 1.7z"/><path id="XMLID_35_" d="M64.4 14.4l-2.9-5c1.4-.4 2.6-1.4 2.6-3.8 0-3.2-2-4-5.2-4h-5.6c-.9 0-1.3.3-1.3.9v11.8c0 .2.1.3.3.3h2.4v-3.8c0-.8.4-1.2 1.6-1.2h2.4l2.6 4.8c.1.1.2.2.4.2h2.5c.3 0 .3-.1.2-.2zm-5.1-6.8h-4.5v-4h4.5c1.7 0 2.1.7 2.1 2 0 1.4-.4 2-2.1 2z"/></g></svg>