<?xml version="1.0" encoding="utf-8"?>
<!-- Generator: Adobe Illustrator 19.1.0, SVG Export Plug-In . SVG Version: 6.00 Build 0)  -->
<svg version="1.1" id="Capa_1" xmlns="http://www.w3.org/2000/svg" xmlns:xlink="http://www.w3.org/1999/xlink" x="0px" y="0px"
	 width="18.3px" height="18.3px" viewBox="66.2 297.5 18.3 18.3" style="enable-background:new 66.2 297.5 18.3 18.3;"
	 xml:space="preserve">
<style type="text/css">
	.st0{fill:#FAFBED;}
</style>
<g>
	<g>
		<path class="st0" d="M74.9,300.7c0.4,0,0.7-0.2,1-0.5c0.3-0.3,0.4-0.6,0.4-1c0-0.4-0.2-0.7-0.4-1c-0.3-0.3-0.6-0.4-1-0.4
			c-0.4,0-0.7,0.2-1,0.5s-0.4,0.6-0.4,1s0.1,0.7,0.4,1C74.2,300.5,74.5,300.7,74.9,300.7z"/>
		<path class="st0" d="M79.7,305.4l-2.1-1.1l-1.7-2.7c-0.3-0.4-0.7-0.6-1.2-0.6c-0.3,0-0.6,0.1-0.9,0.4l-2.6,2.6
			c-0.1,0.1-0.1,0.2-0.2,0.3l-0.3,2.9v0.1c0,0.2,0.1,0.3,0.2,0.5c0.1,0.1,0.3,0.2,0.5,0.2s0.3-0.1,0.4-0.2c0.1-0.1,0.2-0.3,0.2-0.4
			l0.3-2.5l0.9-0.9l-0.8,7l-1.5,3.3c-0.1,0.2-0.1,0.3-0.1,0.4c0,0.3,0.1,0.5,0.3,0.7c0.2,0.2,0.4,0.3,0.7,0.2c0.4,0,0.7-0.2,0.8-0.5
			l1.6-3.6c0,0,0-0.1,0-0.1c0-0.1,0.1-0.1,0.1-0.2c0-0.1,0-0.1,0-0.2l0.2-1.7l1.6,5.6c0.2,0.5,0.5,0.7,0.9,0.6
			c0.3,0,0.5-0.1,0.7-0.3c0.2-0.2,0.3-0.4,0.3-0.7c0,0,0-0.1,0-0.1c0,0,0-0.1,0-0.1l-2.3-7.8l0.3-2.5l0.6,1c0.1,0.1,0.1,0.1,0.2,0.2
			l2.2,1.2c0.2,0.1,0.3,0.1,0.3,0.1c0.2,0,0.3-0.1,0.5-0.2c0.1-0.1,0.2-0.3,0.2-0.5C80,305.7,79.9,305.6,79.7,305.4z"/>
	</g>
</g>
</svg>
