<?xml version="1.0" encoding="utf-8"?>
<!-- Generator: Adobe Illustrator 19.1.0, SVG Export Plug-In . SVG Version: 6.00 Build 0)  -->
<svg version="1.1" id="Layer_1" xmlns="http://www.w3.org/2000/svg" xmlns:xlink="http://www.w3.org/1999/xlink" x="0px" y="0px"
	 width="65.2px" height="16.4px" viewBox="0 0 65.2 16.4" style="enable-background:new 0 0 65.2 16.4;" xml:space="preserve">
	 <style>
		 path{
		 fill:#FAFBED;
		 }
	 </style>
<g>
	<g id="XMLID_34_">
		<path id="XMLID_43_" d="M10.8,1.9v7.3c0,2.4-1.1,3.5-3.6,3.5c-2.5,0-3.6-1-3.6-3.5V1.6H1.1c-0.2,0-0.3,0.1-0.3,0.3v7.4
			c0,4.1,2.6,5.5,6.4,5.5c3.8,0,6.4-1.4,6.4-5.5V1.6h-2.4C10.9,1.6,10.8,1.7,10.8,1.9z"/>
		<path id="XMLID_42_" d="M46.3,3.7c0.2,0,0.3-0.1,0.4-0.2l0.7-1.8c0-0.1,0-0.2-0.1-0.2h-9.9c-0.9,0-1.3,0.3-1.3,0.9v11.4
			c0,0.5,0.3,0.8,1,0.8h9.2c0.2,0,0.3-0.1,0.4-0.2l0.7-1.8c0-0.1,0-0.2-0.1-0.2h-8.4v-2.3c0-0.8,0.4-1.2,1.6-1.2h3.6
			c0.2,0,0.3-0.1,0.4-0.2l0.7-1.7C45.2,7,45.1,7,45,7h-6.2V3.7H46.3z"/>
		<path id="XMLID_38_" d="M28.9,7.7c1.1-0.6,1.5-1.6,1.5-2.9c0-2.9-2.4-3.3-4.8-3.3h-5.6c-0.9,0-1.3,0.3-1.3,0.9v11.4
			c0,0.5,0.3,0.8,1,0.8h6.8c2.6,0,4.4-1,4.4-3.6C31.1,9.5,30.4,8.1,28.9,7.7z M21.5,3.7h4.3c1.4,0,1.8,0.5,1.8,1.7
			c0,1.1-0.4,1.7-1.8,1.7h-4.3V3.7z M26.4,12.5h-4.8v-2.4C21.5,9.3,22,9,23.2,9h3.2c1.5,0,2,0.6,2,1.8C28.3,12,27.9,12.5,26.4,12.5z
			"/>
		<path id="XMLID_35_" d="M64.4,14.4l-2.9-5C62.9,9,64.1,8,64.1,5.6c0-3.2-2-4-5.2-4h-5.6c-0.9,0-1.3,0.3-1.3,0.9v11.8
			c0,0.2,0.1,0.3,0.3,0.3h2.4v-3.8c0-0.8,0.4-1.2,1.6-1.2h2.4l2.6,4.8c0.1,0.1,0.2,0.2,0.4,0.2h2.5C64.5,14.6,64.5,14.5,64.4,14.4z
			 M59.3,7.6h-4.5v-4h4.5c1.7,0,2.1,0.7,2.1,2C61.4,7,61,7.6,59.3,7.6z"/>
	</g>
</g>
</svg>
